<svg width="26" height="30" viewBox="0 0 26 30" fill="none" xmlns="http://www.w3.org/2000/svg">
<path d="M5.85938 2.17969C5.85938 4.875 6.25781 6.16406 7.57031 7.64062C8.50781 8.71875 10.4297 9.84375 11.3438 9.84375C11.7422 9.84375 11.7656 9.98438 11.6719 11.4141C11.5312 13.4766 10.8984 14.6953 9.32812 15.9375C8.64844 16.4766 7.85156 17.25 7.54688 17.6953C7.14844 18.2344 6.72656 18.5156 6.14062 18.6328C4.47656 18.9375 3.04688 19.7344 1.89844 21C0.328125 22.7109 0 23.8125 0 27.2344V30H2.57812H5.15625V27.75C5.15625 25.5234 5.34375 24.75 6.07031 24.2109C6.60938 23.7891 6.70312 23.8359 7.03125 24.6094C7.47656 25.7109 8.88281 26.9531 10.4766 27.7031C11.8125 28.3359 12.1641 28.4062 13.7812 28.3359C16.3359 28.1953 17.8594 27.4219 20.2969 24.9609C21.8438 23.4141 22.4062 22.6172 23.2969 20.8359C24.8203 17.7656 25.3828 15.3047 25.2656 12.4453C25.125 9 23.8594 6.79688 21.2344 5.4375C20.1094 4.85156 19.8281 4.80469 15.9844 4.73438C12 4.64062 11.9531 4.64062 11.4844 4.05469C11.1094 3.58594 11.0156 3.09375 11.0156 1.73438V0H8.4375H5.85938V2.17969ZM9.375 2.97656C9.375 4.33594 9.98438 5.4375 11.0625 6.02344C11.6953 6.35156 12.6328 6.44531 15.9844 6.5625L20.1094 6.67969L21.1406 7.38281C21.7969 7.875 22.3828 8.55469 22.8516 9.49219C23.5078 10.7578 23.5547 11.0625 23.5312 13.1016C23.4375 20.5312 17.4609 27.6562 12.2812 26.5078C10.4531 26.0859 9.21094 25.0781 8.46094 23.4141C7.75781 21.7969 7.33594 21.6797 5.625 22.5469C4.05469 23.3672 3.65625 24.0703 3.51562 26.3203L3.39844 28.2422L2.48438 28.3125L1.57031 28.3828L1.6875 26.2969C1.78125 24.4688 1.875 24.0234 2.48438 23.0625C3.42188 21.5156 4.99219 20.5547 6.79688 20.4375C8.13281 20.3438 8.15625 20.3203 8.57812 19.4062C8.83594 18.8438 9.53906 18.0234 10.3125 17.4141C12.375 15.75 13.3594 13.9922 13.3594 11.9531C13.3828 10.1484 13.4531 10.0781 15.4922 10.0781C17.7188 10.0781 17.8125 10.1953 17.8125 12.7969C17.8125 14.7656 17.3438 16.125 16.3359 17.0625C15.8672 17.4844 15.7266 17.5078 14.8594 17.2969C14.0391 17.0625 13.6875 17.0859 12.7969 17.4375C8.69531 19.0078 9.70312 24.8906 14.0625 24.8906C15.9375 24.8906 17.2969 23.8594 17.8594 21.9609C18.0938 21.1875 18.0703 20.8594 17.7422 19.8984L17.3203 18.75L18.1641 17.5547C19.1953 16.0547 19.6875 14.4141 19.6875 12.4453C19.6875 10.5938 19.1953 9.49219 18.0703 8.74219C17.3438 8.25 16.9922 8.20312 14.4141 8.20312C11.7188 8.20312 11.4609 8.15625 10.2891 7.54688C8.64844 6.67969 7.73438 5.29688 7.57031 3.30469L7.42969 1.875H8.41406H9.375V2.97656ZM15.5625 19.5938C16.4297 20.4609 16.3828 21.6094 15.4922 22.5234C15.0234 22.9922 14.5781 23.2031 14.0625 23.2031C13.5469 23.2031 13.1016 22.9922 12.6328 22.5234C11.7656 21.6562 11.7422 20.6719 12.5625 19.7109C13.3828 18.75 14.6484 18.7031 15.5625 19.5938Z" fill="#2AA7FF"/>
</svg>
